<?xml version="1.0" encoding="utf-8"?>
<svg xmlns="http://www.w3.org/2000/svg" xmlns:xlink="http://www.w3.org/1999/xlink" width="600" height="400" viewBox="0 0 2400 1600">
<defs>
  <clipPath id="clip880">
    <rect x="0" y="0" width="2400" height="1600"/>
  </clipPath>
</defs>
<path clip-path="url(#clip880)" d="M0 1600 L2400 1600 L2400 0 L0 0  Z" fill="#ffffff" fill-rule="evenodd" fill-opacity="1"/>
<defs>
  <clipPath id="clip881">
    <rect x="480" y="0" width="1681" height="1600"/>
  </clipPath>
</defs>
<path clip-path="url(#clip880)" d="M156.112 1486.45 L2352.76 1486.45 L2352.76 47.2441 L156.112 47.2441  Z" fill="#ffffff" fill-rule="evenodd" fill-opacity="1"/>
<defs>
  <clipPath id="clip882">
    <rect x="156" y="47" width="2198" height="1440"/>
  </clipPath>
</defs>
<polyline clip-path="url(#clip882)" style="stroke:#000000; stroke-linecap:round; stroke-linejoin:round; stroke-width:2; stroke-opacity:0.1; fill:none" points="425.512,1486.45 425.512,47.2441 "/>
<polyline clip-path="url(#clip882)" style="stroke:#000000; stroke-linecap:round; stroke-linejoin:round; stroke-width:2; stroke-opacity:0.1; fill:none" points="839.973,1486.45 839.973,47.2441 "/>
<polyline clip-path="url(#clip882)" style="stroke:#000000; stroke-linecap:round; stroke-linejoin:round; stroke-width:2; stroke-opacity:0.1; fill:none" points="1668.9,1486.45 1668.9,47.2441 "/>
<polyline clip-path="url(#clip882)" style="stroke:#000000; stroke-linecap:round; stroke-linejoin:round; stroke-width:2; stroke-opacity:0.1; fill:none" points="2083.36,1486.45 2083.36,47.2441 "/>
<polyline clip-path="url(#clip880)" style="stroke:#000000; stroke-linecap:round; stroke-linejoin:round; stroke-width:4; stroke-opacity:1; fill:none" points="156.112,1445.72 2352.76,1445.72 "/>
<polyline clip-path="url(#clip880)" style="stroke:#000000; stroke-linecap:round; stroke-linejoin:round; stroke-width:4; stroke-opacity:1; fill:none" points="425.512,1464.61 425.512,1426.82 "/>
<polyline clip-path="url(#clip880)" style="stroke:#000000; stroke-linecap:round; stroke-linejoin:round; stroke-width:4; stroke-opacity:1; fill:none" points="839.973,1464.61 839.973,1426.82 "/>
<polyline clip-path="url(#clip880)" style="stroke:#000000; stroke-linecap:round; stroke-linejoin:round; stroke-width:4; stroke-opacity:1; fill:none" points="1668.9,1464.61 1668.9,1426.82 "/>
<polyline clip-path="url(#clip880)" style="stroke:#000000; stroke-linecap:round; stroke-linejoin:round; stroke-width:4; stroke-opacity:1; fill:none" points="2083.36,1464.61 2083.36,1426.82 "/>
<path clip-path="url(#clip880)" d="M394.412 1491.29 L424.088 1491.29 L424.088 1495.22 L394.412 1495.22 L394.412 1491.29 Z" fill="#000000" fill-rule="nonzero" fill-opacity="1" /><path clip-path="url(#clip880)" d="M447.028 1477.63 L435.222 1496.08 L447.028 1496.08 L447.028 1477.63 M445.801 1473.56 L451.681 1473.56 L451.681 1496.08 L456.611 1496.08 L456.611 1499.97 L451.681 1499.97 L451.681 1508.12 L447.028 1508.12 L447.028 1499.97 L431.426 1499.97 L431.426 1495.45 L445.801 1473.56 Z" fill="#000000" fill-rule="nonzero" fill-opacity="1" /><path clip-path="url(#clip880)" d="M809.915 1491.29 L839.591 1491.29 L839.591 1495.22 L809.915 1495.22 L809.915 1491.29 Z" fill="#000000" fill-rule="nonzero" fill-opacity="1" /><path clip-path="url(#clip880)" d="M853.711 1504.18 L870.031 1504.18 L870.031 1508.12 L848.086 1508.12 L848.086 1504.18 Q850.748 1501.43 855.332 1496.8 Q859.938 1492.14 861.119 1490.8 Q863.364 1488.28 864.244 1486.54 Q865.146 1484.78 865.146 1483.09 Q865.146 1480.34 863.202 1478.6 Q861.281 1476.87 858.179 1476.87 Q855.98 1476.87 853.526 1477.63 Q851.096 1478.39 848.318 1479.94 L848.318 1475.22 Q851.142 1474.09 853.596 1473.51 Q856.049 1472.93 858.086 1472.93 Q863.457 1472.93 866.651 1475.62 Q869.845 1478.3 869.845 1482.79 Q869.845 1484.92 869.035 1486.84 Q868.248 1488.74 866.142 1491.33 Q865.563 1492 862.461 1495.22 Q859.359 1498.42 853.711 1504.18 Z" fill="#000000" fill-rule="nonzero" fill-opacity="1" /><path clip-path="url(#clip880)" d="M1663.55 1504.18 L1679.87 1504.18 L1679.87 1508.12 L1657.92 1508.12 L1657.92 1504.18 Q1660.58 1501.43 1665.17 1496.8 Q1669.77 1492.14 1670.96 1490.8 Q1673.2 1488.28 1674.08 1486.54 Q1674.98 1484.78 1674.98 1483.09 Q1674.98 1480.34 1673.04 1478.6 Q1671.12 1476.87 1668.02 1476.87 Q1665.82 1476.87 1663.36 1477.63 Q1660.93 1478.39 1658.15 1479.94 L1658.15 1475.22 Q1660.98 1474.09 1663.43 1473.51 Q1665.89 1472.93 1667.92 1472.93 Q1673.29 1472.93 1676.49 1475.62 Q1679.68 1478.3 1679.68 1482.79 Q1679.68 1484.92 1678.87 1486.84 Q1678.08 1488.74 1675.98 1491.33 Q1675.4 1492 1672.3 1495.22 Q1669.2 1498.42 1663.55 1504.18 Z" fill="#000000" fill-rule="nonzero" fill-opacity="1" /><path clip-path="url(#clip880)" d="M2086.37 1477.63 L2074.56 1496.08 L2086.37 1496.08 L2086.37 1477.63 M2085.14 1473.56 L2091.02 1473.56 L2091.02 1496.08 L2095.95 1496.08 L2095.95 1499.97 L2091.02 1499.97 L2091.02 1508.12 L2086.37 1508.12 L2086.37 1499.97 L2070.76 1499.97 L2070.76 1495.45 L2085.14 1473.56 Z" fill="#000000" fill-rule="nonzero" fill-opacity="1" /><polyline clip-path="url(#clip882)" style="stroke:#000000; stroke-linecap:round; stroke-linejoin:round; stroke-width:2; stroke-opacity:0.1; fill:none" points="156.112,1048.71 2352.76,1048.71 "/>
<polyline clip-path="url(#clip882)" style="stroke:#000000; stroke-linecap:round; stroke-linejoin:round; stroke-width:2; stroke-opacity:0.1; fill:none" points="156.112,651.705 2352.76,651.705 "/>
<polyline clip-path="url(#clip882)" style="stroke:#000000; stroke-linecap:round; stroke-linejoin:round; stroke-width:2; stroke-opacity:0.1; fill:none" points="156.112,254.699 2352.76,254.699 "/>
<polyline clip-path="url(#clip880)" style="stroke:#000000; stroke-linecap:round; stroke-linejoin:round; stroke-width:4; stroke-opacity:1; fill:none" points="1254.43,1486.45 1254.43,47.2441 "/>
<polyline clip-path="url(#clip880)" style="stroke:#000000; stroke-linecap:round; stroke-linejoin:round; stroke-width:4; stroke-opacity:1; fill:none" points="1235.54,1048.71 1273.33,1048.71 "/>
<polyline clip-path="url(#clip880)" style="stroke:#000000; stroke-linecap:round; stroke-linejoin:round; stroke-width:4; stroke-opacity:1; fill:none" points="1235.54,651.705 1273.33,651.705 "/>
<polyline clip-path="url(#clip880)" style="stroke:#000000; stroke-linecap:round; stroke-linejoin:round; stroke-width:4; stroke-opacity:1; fill:none" points="1235.54,254.699 1273.33,254.699 "/>
<path clip-path="url(#clip880)" d="M1162.25 1034.51 Q1158.64 1034.51 1156.81 1038.07 Q1155.01 1041.62 1155.01 1048.75 Q1155.01 1055.85 1156.81 1059.42 Q1158.64 1062.96 1162.25 1062.96 Q1165.89 1062.96 1167.69 1059.42 Q1169.52 1055.85 1169.52 1048.75 Q1169.52 1041.62 1167.69 1038.07 Q1165.89 1034.51 1162.25 1034.51 M1162.25 1030.81 Q1168.06 1030.81 1171.12 1035.41 Q1174.2 1040 1174.2 1048.75 Q1174.2 1057.47 1171.12 1062.08 Q1168.06 1066.66 1162.25 1066.66 Q1156.44 1066.66 1153.36 1062.08 Q1150.31 1057.47 1150.31 1048.75 Q1150.31 1040 1153.36 1035.41 Q1156.44 1030.81 1162.25 1030.81 Z" fill="#000000" fill-rule="nonzero" fill-opacity="1" /><path clip-path="url(#clip880)" d="M1182.42 1060.11 L1187.3 1060.11 L1187.3 1065.99 L1182.42 1065.99 L1182.42 1060.11 Z" fill="#000000" fill-rule="nonzero" fill-opacity="1" /><path clip-path="url(#clip880)" d="M1197.53 1031.43 L1215.89 1031.43 L1215.89 1035.37 L1201.81 1035.37 L1201.81 1043.84 Q1202.83 1043.49 1203.85 1043.33 Q1204.87 1043.14 1205.89 1043.14 Q1211.67 1043.14 1215.05 1046.31 Q1218.43 1049.49 1218.43 1054.9 Q1218.43 1060.48 1214.96 1063.58 Q1211.49 1066.66 1205.17 1066.66 Q1202.99 1066.66 1200.73 1066.29 Q1198.48 1065.92 1196.07 1065.18 L1196.07 1060.48 Q1198.16 1061.62 1200.38 1062.17 Q1202.6 1062.73 1205.08 1062.73 Q1209.08 1062.73 1211.42 1060.62 Q1213.76 1058.51 1213.76 1054.9 Q1213.76 1051.29 1211.42 1049.18 Q1209.08 1047.08 1205.08 1047.08 Q1203.2 1047.08 1201.33 1047.5 Q1199.48 1047.91 1197.53 1048.79 L1197.53 1031.43 Z" fill="#000000" fill-rule="nonzero" fill-opacity="1" /><path clip-path="url(#clip880)" d="M1152.07 665.05 L1159.71 665.05 L1159.71 638.684 L1151.4 640.351 L1151.4 636.092 L1159.66 634.425 L1164.34 634.425 L1164.34 665.05 L1171.98 665.05 L1171.98 668.985 L1152.07 668.985 L1152.07 665.05 Z" fill="#000000" fill-rule="nonzero" fill-opacity="1" /><path clip-path="url(#clip880)" d="M1181.42 663.105 L1186.3 663.105 L1186.3 668.985 L1181.42 668.985 L1181.42 663.105 Z" fill="#000000" fill-rule="nonzero" fill-opacity="1" /><path clip-path="url(#clip880)" d="M1206.49 637.504 Q1202.88 637.504 1201.05 641.068 Q1199.24 644.61 1199.24 651.74 Q1199.24 658.846 1201.05 662.411 Q1202.88 665.952 1206.49 665.952 Q1210.12 665.952 1211.93 662.411 Q1213.76 658.846 1213.76 651.74 Q1213.76 644.61 1211.93 641.068 Q1210.12 637.504 1206.49 637.504 M1206.49 633.8 Q1212.3 633.8 1215.36 638.406 Q1218.43 642.99 1218.43 651.74 Q1218.43 660.466 1215.36 665.073 Q1212.3 669.656 1206.49 669.656 Q1200.68 669.656 1197.6 665.073 Q1194.55 660.466 1194.55 651.74 Q1194.55 642.99 1197.6 638.406 Q1200.68 633.8 1206.49 633.8 Z" fill="#000000" fill-rule="nonzero" fill-opacity="1" /><path clip-path="url(#clip880)" d="M1153.06 268.044 L1160.7 268.044 L1160.7 241.679 L1152.39 243.345 L1152.39 239.086 L1160.66 237.419 L1165.33 237.419 L1165.33 268.044 L1172.97 268.044 L1172.97 271.979 L1153.06 271.979 L1153.06 268.044 Z" fill="#000000" fill-rule="nonzero" fill-opacity="1" /><path clip-path="url(#clip880)" d="M1182.42 266.1 L1187.3 266.1 L1187.3 271.979 L1182.42 271.979 L1182.42 266.1 Z" fill="#000000" fill-rule="nonzero" fill-opacity="1" /><path clip-path="url(#clip880)" d="M1197.53 237.419 L1215.89 237.419 L1215.89 241.355 L1201.81 241.355 L1201.81 249.827 Q1202.83 249.48 1203.85 249.318 Q1204.87 249.132 1205.89 249.132 Q1211.67 249.132 1215.05 252.304 Q1218.43 255.475 1218.43 260.892 Q1218.43 266.47 1214.96 269.572 Q1211.49 272.651 1205.17 272.651 Q1202.99 272.651 1200.73 272.28 Q1198.48 271.91 1196.07 271.169 L1196.07 266.47 Q1198.16 267.604 1200.38 268.16 Q1202.6 268.716 1205.08 268.716 Q1209.08 268.716 1211.42 266.609 Q1213.76 264.503 1213.76 260.892 Q1213.76 257.28 1211.42 255.174 Q1209.08 253.068 1205.08 253.068 Q1203.2 253.068 1201.33 253.484 Q1199.48 253.901 1197.53 254.78 L1197.53 237.419 Z" fill="#000000" fill-rule="nonzero" fill-opacity="1" /><polyline clip-path="url(#clip882)" style="stroke:#009af9; stroke-linecap:round; stroke-linejoin:round; stroke-width:4; stroke-opacity:1; fill:none" points="218.281,87.9763 239.675,97.3859 364.977,155.338 423.268,184.166 501.399,225.002 565.959,260.935 625.993,296.425 663.675,319.871 701.358,344.336 735.159,367.246 768.96,391.173 807.649,419.966 846.339,450.473 875.26,474.562 904.18,499.908 941.17,534.45 978.16,571.829 995.041,590.003 1011.92,608.983 1028.8,628.866 1045.68,649.767 1064.89,674.975 1084.11,701.949 1103.32,731.036 1122.53,762.706 1137.76,790.075 1152.99,819.943 1160.61,836.01 1168.22,852.971 1175.84,870.963 1183.45,890.159 1192.91,916.025 1202.37,944.7 1207.1,960.358 1211.83,977.097 1216.56,995.126 1221.29,1014.73 1226.02,1036.29 1230.75,1060.41 1233.12,1073.69 1235.48,1087.99 1237.85,1103.54 1240.21,1120.64 1242.58,1139.77 1244.94,1161.64 1246.13,1173.97 1247.31,1187.52 1248.49,1202.68 1249.67,1220.01 1250.27,1229.77 1250.86,1240.5 1251.45,1252.5 1252.04,1266.2 1252.63,1282.39 1253.22,1302.64 1253.81,1331.24 1254.4,1404.11 1255,1335.02 1255.59,1305.03 1256.18,1284.21 1256.77,1267.7 1257.36,1253.79 1257.95,1241.65 1258.54,1230.8 1259.13,1220.95 1260.04,1207.36 1260.95,1195.16 1261.85,1184.04 1262.76,1173.8 1264.57,1155.35 1266.38,1138.99 1268.19,1124.21 1270,1110.68 1271.81,1098.16 1273.63,1086.48 1277.25,1065.17 1280.87,1046.01 1284.49,1028.53 1288.12,1012.4 1291.74,997.389 1295.36,983.323 1298.98,970.064 1302.61,957.506 1309.85,934.163 1317.1,912.776 1327.31,885.263 1337.53,860.214 1347.74,837.142 1357.96,815.699 1368.17,795.623 1378.39,776.717 1388.6,758.822 1398.81,741.815 1414.08,717.831 1429.35,695.332 1444.61,674.107 1459.88,653.989 1477.24,632.287 1494.6,611.686 1511.97,592.054 1529.33,573.287 1563.72,538.327 1598.1,505.872 1635.94,472.578 1673.77,441.418 1702.67,418.859 1731.57,397.25 1768.03,371.191 1804.5,346.339 1838.23,324.314 1871.95,303.121 1941.52,261.731 2012.04,222.538 2085.67,184.13 2143.67,155.443 2275.77,94.4807 2290.59,87.9763 "/>
</svg>
