<?xml version="1.0" encoding="utf-8"?>
<svg xmlns="http://www.w3.org/2000/svg" xmlns:xlink="http://www.w3.org/1999/xlink" width="600" height="400" viewBox="0 0 2400 1600">
<defs>
  <clipPath id="clip200">
    <rect x="0" y="0" width="2400" height="1600"/>
  </clipPath>
</defs>
<path clip-path="url(#clip200)" d="M0 1600 L2400 1600 L2400 0 L0 0  Z" fill="#ffffff" fill-rule="evenodd" fill-opacity="1"/>
<defs>
  <clipPath id="clip201">
    <rect x="480" y="0" width="1681" height="1600"/>
  </clipPath>
</defs>
<path clip-path="url(#clip200)" d="M112.177 1486.45 L2352.76 1486.45 L2352.76 47.2441 L112.177 47.2441  Z" fill="#ffffff" fill-rule="evenodd" fill-opacity="1"/>
<defs>
  <clipPath id="clip202">
    <rect x="112" y="47" width="2242" height="1440"/>
  </clipPath>
</defs>
<polyline clip-path="url(#clip202)" style="stroke:#000000; stroke-linecap:round; stroke-linejoin:round; stroke-width:2; stroke-opacity:0.1; fill:none" points="386.965,1486.45 386.965,47.2441 "/>
<polyline clip-path="url(#clip202)" style="stroke:#000000; stroke-linecap:round; stroke-linejoin:round; stroke-width:2; stroke-opacity:0.1; fill:none" points="809.716,1486.45 809.716,47.2441 "/>
<polyline clip-path="url(#clip202)" style="stroke:#000000; stroke-linecap:round; stroke-linejoin:round; stroke-width:2; stroke-opacity:0.1; fill:none" points="1655.22,1486.45 1655.22,47.2441 "/>
<polyline clip-path="url(#clip202)" style="stroke:#000000; stroke-linecap:round; stroke-linejoin:round; stroke-width:2; stroke-opacity:0.1; fill:none" points="2077.97,1486.45 2077.97,47.2441 "/>
<polyline clip-path="url(#clip200)" style="stroke:#000000; stroke-linecap:round; stroke-linejoin:round; stroke-width:4; stroke-opacity:1; fill:none" points="112.177,1445.72 2352.76,1445.72 "/>
<polyline clip-path="url(#clip200)" style="stroke:#000000; stroke-linecap:round; stroke-linejoin:round; stroke-width:4; stroke-opacity:1; fill:none" points="386.965,1464.61 386.965,1426.82 "/>
<polyline clip-path="url(#clip200)" style="stroke:#000000; stroke-linecap:round; stroke-linejoin:round; stroke-width:4; stroke-opacity:1; fill:none" points="809.716,1464.61 809.716,1426.82 "/>
<polyline clip-path="url(#clip200)" style="stroke:#000000; stroke-linecap:round; stroke-linejoin:round; stroke-width:4; stroke-opacity:1; fill:none" points="1655.22,1464.61 1655.22,1426.82 "/>
<polyline clip-path="url(#clip200)" style="stroke:#000000; stroke-linecap:round; stroke-linejoin:round; stroke-width:4; stroke-opacity:1; fill:none" points="2077.97,1464.61 2077.97,1426.82 "/>
<path clip-path="url(#clip200)" d="M355.866 1491.29 L385.542 1491.29 L385.542 1495.22 L355.866 1495.22 L355.866 1491.29 Z" fill="#000000" fill-rule="nonzero" fill-opacity="1" /><path clip-path="url(#clip200)" d="M408.481 1477.63 L396.676 1496.08 L408.481 1496.08 L408.481 1477.63 M407.254 1473.56 L413.134 1473.56 L413.134 1496.08 L418.065 1496.08 L418.065 1499.97 L413.134 1499.97 L413.134 1508.12 L408.481 1508.12 L408.481 1499.97 L392.879 1499.97 L392.879 1495.45 L407.254 1473.56 Z" fill="#000000" fill-rule="nonzero" fill-opacity="1" /><path clip-path="url(#clip200)" d="M779.658 1491.29 L809.334 1491.29 L809.334 1495.22 L779.658 1495.22 L779.658 1491.29 Z" fill="#000000" fill-rule="nonzero" fill-opacity="1" /><path clip-path="url(#clip200)" d="M823.454 1504.18 L839.774 1504.18 L839.774 1508.12 L817.829 1508.12 L817.829 1504.18 Q820.491 1501.43 825.075 1496.8 Q829.681 1492.14 830.862 1490.8 Q833.107 1488.28 833.987 1486.54 Q834.889 1484.78 834.889 1483.09 Q834.889 1480.34 832.945 1478.6 Q831.024 1476.87 827.922 1476.87 Q825.723 1476.87 823.269 1477.63 Q820.838 1478.39 818.061 1479.94 L818.061 1475.22 Q820.885 1474.09 823.338 1473.51 Q825.792 1472.93 827.829 1472.93 Q833.2 1472.93 836.394 1475.62 Q839.588 1478.3 839.588 1482.79 Q839.588 1484.92 838.778 1486.84 Q837.991 1488.74 835.885 1491.33 Q835.306 1492 832.204 1495.22 Q829.102 1498.42 823.454 1504.18 Z" fill="#000000" fill-rule="nonzero" fill-opacity="1" /><path clip-path="url(#clip200)" d="M1649.87 1504.18 L1666.19 1504.18 L1666.19 1508.12 L1644.25 1508.12 L1644.25 1504.18 Q1646.91 1501.43 1651.49 1496.8 Q1656.1 1492.14 1657.28 1490.8 Q1659.52 1488.28 1660.4 1486.54 Q1661.31 1484.78 1661.31 1483.09 Q1661.31 1480.34 1659.36 1478.6 Q1657.44 1476.87 1654.34 1476.87 Q1652.14 1476.87 1649.68 1477.63 Q1647.25 1478.39 1644.48 1479.94 L1644.48 1475.22 Q1647.3 1474.09 1649.75 1473.51 Q1652.21 1472.93 1654.25 1472.93 Q1659.62 1472.93 1662.81 1475.62 Q1666 1478.3 1666 1482.79 Q1666 1484.92 1665.19 1486.84 Q1664.41 1488.74 1662.3 1491.33 Q1661.72 1492 1658.62 1495.22 Q1655.52 1498.42 1649.87 1504.18 Z" fill="#000000" fill-rule="nonzero" fill-opacity="1" /><path clip-path="url(#clip200)" d="M2080.98 1477.63 L2069.17 1496.08 L2080.98 1496.08 L2080.98 1477.63 M2079.75 1473.56 L2085.63 1473.56 L2085.63 1496.08 L2090.56 1496.08 L2090.56 1499.97 L2085.63 1499.97 L2085.63 1508.12 L2080.98 1508.12 L2080.98 1499.97 L2065.38 1499.97 L2065.38 1495.45 L2079.75 1473.56 Z" fill="#000000" fill-rule="nonzero" fill-opacity="1" /><polyline clip-path="url(#clip202)" style="stroke:#000000; stroke-linecap:round; stroke-linejoin:round; stroke-width:2; stroke-opacity:0.1; fill:none" points="112.177,1174.17 2352.76,1174.17 "/>
<polyline clip-path="url(#clip202)" style="stroke:#000000; stroke-linecap:round; stroke-linejoin:round; stroke-width:2; stroke-opacity:0.1; fill:none" points="112.177,902.62 2352.76,902.62 "/>
<polyline clip-path="url(#clip202)" style="stroke:#000000; stroke-linecap:round; stroke-linejoin:round; stroke-width:2; stroke-opacity:0.1; fill:none" points="112.177,631.072 2352.76,631.072 "/>
<polyline clip-path="url(#clip202)" style="stroke:#000000; stroke-linecap:round; stroke-linejoin:round; stroke-width:2; stroke-opacity:0.1; fill:none" points="112.177,359.524 2352.76,359.524 "/>
<polyline clip-path="url(#clip202)" style="stroke:#000000; stroke-linecap:round; stroke-linejoin:round; stroke-width:2; stroke-opacity:0.1; fill:none" points="112.177,87.9763 2352.76,87.9763 "/>
<polyline clip-path="url(#clip200)" style="stroke:#000000; stroke-linecap:round; stroke-linejoin:round; stroke-width:4; stroke-opacity:1; fill:none" points="1232.47,1486.45 1232.47,47.2441 "/>
<polyline clip-path="url(#clip200)" style="stroke:#000000; stroke-linecap:round; stroke-linejoin:round; stroke-width:4; stroke-opacity:1; fill:none" points="1213.57,1174.17 1251.36,1174.17 "/>
<polyline clip-path="url(#clip200)" style="stroke:#000000; stroke-linecap:round; stroke-linejoin:round; stroke-width:4; stroke-opacity:1; fill:none" points="1213.57,902.62 1251.36,902.62 "/>
<polyline clip-path="url(#clip200)" style="stroke:#000000; stroke-linecap:round; stroke-linejoin:round; stroke-width:4; stroke-opacity:1; fill:none" points="1213.57,631.072 1251.36,631.072 "/>
<polyline clip-path="url(#clip200)" style="stroke:#000000; stroke-linecap:round; stroke-linejoin:round; stroke-width:4; stroke-opacity:1; fill:none" points="1213.57,359.524 1251.36,359.524 "/>
<polyline clip-path="url(#clip200)" style="stroke:#000000; stroke-linecap:round; stroke-linejoin:round; stroke-width:4; stroke-opacity:1; fill:none" points="1213.57,87.9763 1251.36,87.9763 "/>
<path clip-path="url(#clip200)" d="M1176.56 1187.51 L1184.2 1187.51 L1184.2 1161.15 L1175.89 1162.81 L1175.89 1158.55 L1184.15 1156.89 L1188.83 1156.89 L1188.83 1187.51 L1196.47 1187.51 L1196.47 1191.45 L1176.56 1191.45 L1176.56 1187.51 Z" fill="#000000" fill-rule="nonzero" fill-opacity="1" /><path clip-path="url(#clip200)" d="M1180.15 915.965 L1196.47 915.965 L1196.47 919.9 L1174.52 919.9 L1174.52 915.965 Q1177.18 913.21 1181.77 908.581 Q1186.37 903.928 1187.55 902.585 Q1189.8 900.062 1190.68 898.326 Q1191.58 896.567 1191.58 894.877 Q1191.58 892.122 1189.64 890.386 Q1187.72 888.65 1184.61 888.65 Q1182.42 888.65 1179.96 889.414 Q1177.53 890.178 1174.75 891.729 L1174.75 887.007 Q1177.58 885.872 1180.03 885.294 Q1182.49 884.715 1184.52 884.715 Q1189.89 884.715 1193.09 887.4 Q1196.28 890.085 1196.28 894.576 Q1196.28 896.706 1195.47 898.627 Q1194.68 900.525 1192.58 903.118 Q1192 903.789 1188.9 907.006 Q1185.8 910.201 1180.15 915.965 Z" fill="#000000" fill-rule="nonzero" fill-opacity="1" /><path clip-path="url(#clip200)" d="M1189.34 629.718 Q1192.69 630.435 1194.57 632.704 Q1196.47 634.972 1196.47 638.306 Q1196.47 643.422 1192.95 646.222 Q1189.43 649.023 1182.95 649.023 Q1180.77 649.023 1178.46 648.584 Q1176.17 648.167 1173.71 647.31 L1173.71 642.797 Q1175.66 643.931 1177.97 644.509 Q1180.29 645.088 1182.81 645.088 Q1187.21 645.088 1189.5 643.352 Q1191.81 641.616 1191.81 638.306 Q1191.81 635.25 1189.66 633.537 Q1187.53 631.801 1183.71 631.801 L1179.68 631.801 L1179.68 627.959 L1183.9 627.959 Q1187.35 627.959 1189.17 626.593 Q1191 625.204 1191 622.611 Q1191 619.949 1189.11 618.537 Q1187.23 617.102 1183.71 617.102 Q1181.79 617.102 1179.59 617.519 Q1177.39 617.936 1174.75 618.815 L1174.75 614.649 Q1177.42 613.908 1179.73 613.537 Q1182.07 613.167 1184.13 613.167 Q1189.45 613.167 1192.55 615.598 Q1195.66 618.005 1195.66 622.125 Q1195.66 624.996 1194.01 626.986 Q1192.37 628.954 1189.34 629.718 Z" fill="#000000" fill-rule="nonzero" fill-opacity="1" /><path clip-path="url(#clip200)" d="M1186.88 346.318 L1175.08 364.767 L1186.88 364.767 L1186.88 346.318 M1185.66 342.244 L1191.54 342.244 L1191.54 364.767 L1196.47 364.767 L1196.47 368.656 L1191.54 368.656 L1191.54 376.804 L1186.88 376.804 L1186.88 368.656 L1171.28 368.656 L1171.28 364.142 L1185.66 342.244 Z" fill="#000000" fill-rule="nonzero" fill-opacity="1" /><path clip-path="url(#clip200)" d="M1175.56 70.6963 L1193.92 70.6963 L1193.92 74.6314 L1179.85 74.6314 L1179.85 83.1036 Q1180.86 82.7564 1181.88 82.5944 Q1182.9 82.4092 1183.92 82.4092 Q1189.71 82.4092 1193.09 85.5805 Q1196.47 88.7517 1196.47 94.1684 Q1196.47 99.747 1192.99 102.849 Q1189.52 105.928 1183.2 105.928 Q1181.03 105.928 1178.76 105.557 Q1176.51 105.187 1174.11 104.446 L1174.11 99.747 Q1176.19 100.881 1178.41 101.437 Q1180.63 101.992 1183.11 101.992 Q1187.11 101.992 1189.45 99.8859 Q1191.79 97.7795 1191.79 94.1684 Q1191.79 90.5573 1189.45 88.4508 Q1187.11 86.3443 1183.11 86.3443 Q1181.24 86.3443 1179.36 86.761 Q1177.51 87.1777 1175.56 88.0573 L1175.56 70.6963 Z" fill="#000000" fill-rule="nonzero" fill-opacity="1" /><polyline clip-path="url(#clip202)" style="stroke:#009af9; stroke-linecap:round; stroke-linejoin:round; stroke-width:4; stroke-opacity:1; fill:none" points="175.59,87.9763 197.412,116.01 325.22,280.202 384.676,356.583 464.37,458.963 530.221,543.561 591.457,622.228 668.328,720.983 737.282,809.566 816.209,910.962 875.208,986.755 950.667,1083.7 1019.54,1172.17 1097.92,1272.87 1160.06,1352.7 1179.36,1377.49 1198.66,1402.29 1208.31,1414.68 1217.96,1427.08 1222.79,1433.28 1227.61,1439.48 1230.02,1442.58 1232.44,1445.68 1234.85,1442.66 1237.26,1439.56 1244.65,1430.06 1252.04,1420.57 1259.43,1411.07 1266.82,1401.58 1281.6,1382.59 1296.38,1363.6 1379.74,1256.52 1442.02,1176.5 1512.86,1085.5 1583.01,995.383 1660.19,896.233 1719.14,820.499 1793.53,724.93 1862.34,636.538 1933.3,545.378 2005.22,452.976 2080.33,356.491 2139.49,280.486 2274.23,107.396 2289.34,87.9763 "/>
</svg>
