<?xml version="1.0" encoding="utf-8"?>
<svg xmlns="http://www.w3.org/2000/svg" xmlns:xlink="http://www.w3.org/1999/xlink" width="600" height="400" viewBox="0 0 2400 1600">
<defs>
  <clipPath id="clip600">
    <rect x="0" y="0" width="2400" height="1600"/>
  </clipPath>
</defs>
<path clip-path="url(#clip600)" d="M0 1600 L2400 1600 L2400 0 L0 0  Z" fill="#ffffff" fill-rule="evenodd" fill-opacity="1"/>
<defs>
  <clipPath id="clip601">
    <rect x="480" y="0" width="1681" height="1600"/>
  </clipPath>
</defs>
<path clip-path="url(#clip600)" d="M193.936 1486.45 L2352.76 1486.45 L2352.76 47.2441 L193.936 47.2441  Z" fill="#ffffff" fill-rule="evenodd" fill-opacity="1"/>
<defs>
  <clipPath id="clip602">
    <rect x="193" y="47" width="2160" height="1440"/>
  </clipPath>
</defs>
<polyline clip-path="url(#clip602)" style="stroke:#000000; stroke-linecap:round; stroke-linejoin:round; stroke-width:2; stroke-opacity:0.1; fill:none" points="458.697,1486.45 458.697,47.2441 "/>
<polyline clip-path="url(#clip602)" style="stroke:#000000; stroke-linecap:round; stroke-linejoin:round; stroke-width:2; stroke-opacity:0.1; fill:none" points="866.021,1486.45 866.021,47.2441 "/>
<polyline clip-path="url(#clip602)" style="stroke:#000000; stroke-linecap:round; stroke-linejoin:round; stroke-width:2; stroke-opacity:0.1; fill:none" points="1680.67,1486.45 1680.67,47.2441 "/>
<polyline clip-path="url(#clip602)" style="stroke:#000000; stroke-linecap:round; stroke-linejoin:round; stroke-width:2; stroke-opacity:0.1; fill:none" points="2087.99,1486.45 2087.99,47.2441 "/>
<polyline clip-path="url(#clip600)" style="stroke:#000000; stroke-linecap:round; stroke-linejoin:round; stroke-width:4; stroke-opacity:1; fill:none" points="193.936,766.846 2352.76,766.846 "/>
<polyline clip-path="url(#clip600)" style="stroke:#000000; stroke-linecap:round; stroke-linejoin:round; stroke-width:4; stroke-opacity:1; fill:none" points="458.697,785.744 458.697,747.948 "/>
<polyline clip-path="url(#clip600)" style="stroke:#000000; stroke-linecap:round; stroke-linejoin:round; stroke-width:4; stroke-opacity:1; fill:none" points="866.021,785.744 866.021,747.948 "/>
<polyline clip-path="url(#clip600)" style="stroke:#000000; stroke-linecap:round; stroke-linejoin:round; stroke-width:4; stroke-opacity:1; fill:none" points="1680.67,785.744 1680.67,747.948 "/>
<polyline clip-path="url(#clip600)" style="stroke:#000000; stroke-linecap:round; stroke-linejoin:round; stroke-width:4; stroke-opacity:1; fill:none" points="2087.99,785.744 2087.99,747.948 "/>
<path clip-path="url(#clip600)" d="M427.598 812.417 L457.273 812.417 L457.273 816.353 L427.598 816.353 L427.598 812.417 Z" fill="#000000" fill-rule="nonzero" fill-opacity="1" /><path clip-path="url(#clip600)" d="M480.213 798.76 L468.408 817.209 L480.213 817.209 L480.213 798.76 M478.986 794.686 L484.866 794.686 L484.866 817.209 L489.796 817.209 L489.796 821.098 L484.866 821.098 L484.866 829.246 L480.213 829.246 L480.213 821.098 L464.611 821.098 L464.611 816.584 L478.986 794.686 Z" fill="#000000" fill-rule="nonzero" fill-opacity="1" /><path clip-path="url(#clip600)" d="M835.964 812.417 L865.639 812.417 L865.639 816.353 L835.964 816.353 L835.964 812.417 Z" fill="#000000" fill-rule="nonzero" fill-opacity="1" /><path clip-path="url(#clip600)" d="M879.76 825.311 L896.079 825.311 L896.079 829.246 L874.135 829.246 L874.135 825.311 Q876.797 822.556 881.38 817.927 Q885.987 813.274 887.167 811.931 Q889.413 809.408 890.292 807.672 Q891.195 805.913 891.195 804.223 Q891.195 801.468 889.25 799.732 Q887.329 797.996 884.227 797.996 Q882.028 797.996 879.575 798.76 Q877.144 799.524 874.366 801.075 L874.366 796.353 Q877.19 795.218 879.644 794.64 Q882.098 794.061 884.135 794.061 Q889.505 794.061 892.7 796.746 Q895.894 799.431 895.894 803.922 Q895.894 806.052 895.084 807.973 Q894.297 809.871 892.19 812.464 Q891.612 813.135 888.51 816.353 Q885.408 819.547 879.76 825.311 Z" fill="#000000" fill-rule="nonzero" fill-opacity="1" /><path clip-path="url(#clip600)" d="M1675.32 825.311 L1691.64 825.311 L1691.64 829.246 L1669.7 829.246 L1669.7 825.311 Q1672.36 822.556 1676.94 817.927 Q1681.55 813.274 1682.73 811.931 Q1684.98 809.408 1685.86 807.672 Q1686.76 805.913 1686.76 804.223 Q1686.76 801.468 1684.81 799.732 Q1682.89 797.996 1679.79 797.996 Q1677.59 797.996 1675.14 798.76 Q1672.71 799.524 1669.93 801.075 L1669.93 796.353 Q1672.75 795.218 1675.21 794.64 Q1677.66 794.061 1679.7 794.061 Q1685.07 794.061 1688.26 796.746 Q1691.46 799.431 1691.46 803.922 Q1691.46 806.052 1690.65 807.973 Q1689.86 809.871 1687.75 812.464 Q1687.18 813.135 1684.07 816.353 Q1680.97 819.547 1675.32 825.311 Z" fill="#000000" fill-rule="nonzero" fill-opacity="1" /><path clip-path="url(#clip600)" d="M2091 798.76 L2079.2 817.209 L2091 817.209 L2091 798.76 M2089.78 794.686 L2095.66 794.686 L2095.66 817.209 L2100.59 817.209 L2100.59 821.098 L2095.66 821.098 L2095.66 829.246 L2091 829.246 L2091 821.098 L2075.4 821.098 L2075.4 816.584 L2089.78 794.686 Z" fill="#000000" fill-rule="nonzero" fill-opacity="1" /><polyline clip-path="url(#clip602)" style="stroke:#000000; stroke-linecap:round; stroke-linejoin:round; stroke-width:2; stroke-opacity:0.1; fill:none" points="193.936,1362.35 2352.76,1362.35 "/>
<polyline clip-path="url(#clip602)" style="stroke:#000000; stroke-linecap:round; stroke-linejoin:round; stroke-width:2; stroke-opacity:0.1; fill:none" points="193.936,1163.85 2352.76,1163.85 "/>
<polyline clip-path="url(#clip602)" style="stroke:#000000; stroke-linecap:round; stroke-linejoin:round; stroke-width:2; stroke-opacity:0.1; fill:none" points="193.936,965.349 2352.76,965.349 "/>
<polyline clip-path="url(#clip602)" style="stroke:#000000; stroke-linecap:round; stroke-linejoin:round; stroke-width:2; stroke-opacity:0.1; fill:none" points="193.936,568.343 2352.76,568.343 "/>
<polyline clip-path="url(#clip602)" style="stroke:#000000; stroke-linecap:round; stroke-linejoin:round; stroke-width:2; stroke-opacity:0.1; fill:none" points="193.936,369.841 2352.76,369.841 "/>
<polyline clip-path="url(#clip602)" style="stroke:#000000; stroke-linecap:round; stroke-linejoin:round; stroke-width:2; stroke-opacity:0.1; fill:none" points="193.936,171.338 2352.76,171.338 "/>
<polyline clip-path="url(#clip600)" style="stroke:#000000; stroke-linecap:round; stroke-linejoin:round; stroke-width:4; stroke-opacity:1; fill:none" points="1273.35,1486.45 1273.35,47.2441 "/>
<polyline clip-path="url(#clip600)" style="stroke:#000000; stroke-linecap:round; stroke-linejoin:round; stroke-width:4; stroke-opacity:1; fill:none" points="1254.45,1362.35 1292.24,1362.35 "/>
<polyline clip-path="url(#clip600)" style="stroke:#000000; stroke-linecap:round; stroke-linejoin:round; stroke-width:4; stroke-opacity:1; fill:none" points="1254.45,1163.85 1292.24,1163.85 "/>
<polyline clip-path="url(#clip600)" style="stroke:#000000; stroke-linecap:round; stroke-linejoin:round; stroke-width:4; stroke-opacity:1; fill:none" points="1254.45,965.349 1292.24,965.349 "/>
<polyline clip-path="url(#clip600)" style="stroke:#000000; stroke-linecap:round; stroke-linejoin:round; stroke-width:4; stroke-opacity:1; fill:none" points="1254.45,568.343 1292.24,568.343 "/>
<polyline clip-path="url(#clip600)" style="stroke:#000000; stroke-linecap:round; stroke-linejoin:round; stroke-width:4; stroke-opacity:1; fill:none" points="1254.45,369.841 1292.24,369.841 "/>
<polyline clip-path="url(#clip600)" style="stroke:#000000; stroke-linecap:round; stroke-linejoin:round; stroke-width:4; stroke-opacity:1; fill:none" points="1254.45,171.338 1292.24,171.338 "/>
<path clip-path="url(#clip600)" d="M1131.4 1362.81 L1161.07 1362.81 L1161.07 1366.74 L1131.4 1366.74 L1131.4 1362.81 Z" fill="#000000" fill-rule="nonzero" fill-opacity="1" /><path clip-path="url(#clip600)" d="M1171.98 1375.7 L1179.61 1375.7 L1179.61 1349.33 L1171.3 1351 L1171.3 1346.74 L1179.57 1345.07 L1184.24 1345.07 L1184.24 1375.7 L1191.88 1375.7 L1191.88 1379.63 L1171.98 1379.63 L1171.98 1375.7 Z" fill="#000000" fill-rule="nonzero" fill-opacity="1" /><path clip-path="url(#clip600)" d="M1201.33 1373.75 L1206.21 1373.75 L1206.21 1379.63 L1201.33 1379.63 L1201.33 1373.75 Z" fill="#000000" fill-rule="nonzero" fill-opacity="1" /><path clip-path="url(#clip600)" d="M1216.44 1345.07 L1234.8 1345.07 L1234.8 1349.01 L1220.73 1349.01 L1220.73 1357.48 Q1221.74 1357.13 1222.76 1356.97 Q1223.78 1356.79 1224.8 1356.79 Q1230.59 1356.79 1233.97 1359.96 Q1237.35 1363.13 1237.35 1368.55 Q1237.35 1374.12 1233.87 1377.23 Q1230.4 1380.31 1224.08 1380.31 Q1221.91 1380.31 1219.64 1379.94 Q1217.39 1379.56 1214.98 1378.82 L1214.98 1374.12 Q1217.07 1375.26 1219.29 1375.81 Q1221.51 1376.37 1223.99 1376.37 Q1227.99 1376.37 1230.33 1374.26 Q1232.67 1372.16 1232.67 1368.55 Q1232.67 1364.94 1230.33 1362.83 Q1227.99 1360.72 1223.99 1360.72 Q1222.11 1360.72 1220.24 1361.14 Q1218.39 1361.56 1216.44 1362.44 L1216.44 1345.07 Z" fill="#000000" fill-rule="nonzero" fill-opacity="1" /><path clip-path="url(#clip600)" d="M1130.4 1164.3 L1160.08 1164.3 L1160.08 1168.24 L1130.4 1168.24 L1130.4 1164.3 Z" fill="#000000" fill-rule="nonzero" fill-opacity="1" /><path clip-path="url(#clip600)" d="M1170.98 1177.2 L1178.62 1177.2 L1178.62 1150.83 L1170.31 1152.5 L1170.31 1148.24 L1178.57 1146.57 L1183.25 1146.57 L1183.25 1177.2 L1190.89 1177.2 L1190.89 1181.13 L1170.98 1181.13 L1170.98 1177.2 Z" fill="#000000" fill-rule="nonzero" fill-opacity="1" /><path clip-path="url(#clip600)" d="M1200.33 1175.25 L1205.22 1175.25 L1205.22 1181.13 L1200.33 1181.13 L1200.33 1175.25 Z" fill="#000000" fill-rule="nonzero" fill-opacity="1" /><path clip-path="url(#clip600)" d="M1225.4 1149.65 Q1221.79 1149.65 1219.96 1153.21 Q1218.16 1156.76 1218.16 1163.89 Q1218.16 1170.99 1219.96 1174.56 Q1221.79 1178.1 1225.4 1178.1 Q1229.04 1178.1 1230.84 1174.56 Q1232.67 1170.99 1232.67 1163.89 Q1232.67 1156.76 1230.84 1153.21 Q1229.04 1149.65 1225.4 1149.65 M1225.4 1145.95 Q1231.21 1145.95 1234.27 1150.55 Q1237.35 1155.14 1237.35 1163.89 Q1237.35 1172.61 1234.27 1177.22 Q1231.21 1181.8 1225.4 1181.8 Q1219.59 1181.8 1216.51 1177.22 Q1213.46 1172.61 1213.46 1163.89 Q1213.46 1155.14 1216.51 1150.55 Q1219.59 1145.95 1225.4 1145.95 Z" fill="#000000" fill-rule="nonzero" fill-opacity="1" /><path clip-path="url(#clip600)" d="M1131.4 965.8 L1161.07 965.8 L1161.07 969.735 L1131.4 969.735 L1131.4 965.8 Z" fill="#000000" fill-rule="nonzero" fill-opacity="1" /><path clip-path="url(#clip600)" d="M1181.17 951.147 Q1177.55 951.147 1175.73 954.712 Q1173.92 958.254 1173.92 965.383 Q1173.92 972.49 1175.73 976.055 Q1177.55 979.596 1181.17 979.596 Q1184.8 979.596 1186.61 976.055 Q1188.43 972.49 1188.43 965.383 Q1188.43 958.254 1186.61 954.712 Q1184.8 951.147 1181.17 951.147 M1181.17 947.444 Q1186.98 947.444 1190.03 952.05 Q1193.11 956.633 1193.11 965.383 Q1193.11 974.11 1190.03 978.717 Q1186.98 983.3 1181.17 983.3 Q1175.36 983.3 1172.28 978.717 Q1169.22 974.11 1169.22 965.383 Q1169.22 956.633 1172.28 952.05 Q1175.36 947.444 1181.17 947.444 Z" fill="#000000" fill-rule="nonzero" fill-opacity="1" /><path clip-path="url(#clip600)" d="M1201.33 976.749 L1206.21 976.749 L1206.21 982.629 L1201.33 982.629 L1201.33 976.749 Z" fill="#000000" fill-rule="nonzero" fill-opacity="1" /><path clip-path="url(#clip600)" d="M1216.44 948.069 L1234.8 948.069 L1234.8 952.004 L1220.73 952.004 L1220.73 960.476 Q1221.74 960.129 1222.76 959.967 Q1223.78 959.782 1224.8 959.782 Q1230.59 959.782 1233.97 962.953 Q1237.35 966.124 1237.35 971.541 Q1237.35 977.119 1233.87 980.221 Q1230.4 983.3 1224.08 983.3 Q1221.91 983.3 1219.64 982.93 Q1217.39 982.559 1214.98 981.819 L1214.98 977.119 Q1217.07 978.254 1219.29 978.809 Q1221.51 979.365 1223.99 979.365 Q1227.99 979.365 1230.33 977.258 Q1232.67 975.152 1232.67 971.541 Q1232.67 967.93 1230.33 965.823 Q1227.99 963.717 1223.99 963.717 Q1222.11 963.717 1220.24 964.133 Q1218.39 964.55 1216.44 965.43 L1216.44 948.069 Z" fill="#000000" fill-rule="nonzero" fill-opacity="1" /><path clip-path="url(#clip600)" d="M1181.17 554.142 Q1177.55 554.142 1175.73 557.707 Q1173.92 561.248 1173.92 568.378 Q1173.92 575.484 1175.73 579.049 Q1177.55 582.591 1181.17 582.591 Q1184.8 582.591 1186.61 579.049 Q1188.43 575.484 1188.43 568.378 Q1188.43 561.248 1186.61 557.707 Q1184.8 554.142 1181.17 554.142 M1181.17 550.438 Q1186.98 550.438 1190.03 555.045 Q1193.11 559.628 1193.11 568.378 Q1193.11 577.105 1190.03 581.711 Q1186.98 586.295 1181.17 586.295 Q1175.36 586.295 1172.28 581.711 Q1169.22 577.105 1169.22 568.378 Q1169.22 559.628 1172.28 555.045 Q1175.36 550.438 1181.17 550.438 Z" fill="#000000" fill-rule="nonzero" fill-opacity="1" /><path clip-path="url(#clip600)" d="M1201.33 579.744 L1206.21 579.744 L1206.21 585.623 L1201.33 585.623 L1201.33 579.744 Z" fill="#000000" fill-rule="nonzero" fill-opacity="1" /><path clip-path="url(#clip600)" d="M1216.44 551.063 L1234.8 551.063 L1234.8 554.998 L1220.73 554.998 L1220.73 563.471 Q1221.74 563.123 1222.76 562.961 Q1223.78 562.776 1224.8 562.776 Q1230.59 562.776 1233.97 565.947 Q1237.35 569.119 1237.35 574.535 Q1237.35 580.114 1233.87 583.216 Q1230.4 586.295 1224.08 586.295 Q1221.91 586.295 1219.64 585.924 Q1217.39 585.554 1214.98 584.813 L1214.98 580.114 Q1217.07 581.248 1219.29 581.804 Q1221.51 582.359 1223.99 582.359 Q1227.99 582.359 1230.33 580.253 Q1232.67 578.146 1232.67 574.535 Q1232.67 570.924 1230.33 568.818 Q1227.99 566.711 1223.99 566.711 Q1222.11 566.711 1220.24 567.128 Q1218.39 567.545 1216.44 568.424 L1216.44 551.063 Z" fill="#000000" fill-rule="nonzero" fill-opacity="1" /><path clip-path="url(#clip600)" d="M1170.98 383.185 L1178.62 383.185 L1178.62 356.82 L1170.31 358.486 L1170.31 354.227 L1178.57 352.561 L1183.25 352.561 L1183.25 383.185 L1190.89 383.185 L1190.89 387.121 L1170.98 387.121 L1170.98 383.185 Z" fill="#000000" fill-rule="nonzero" fill-opacity="1" /><path clip-path="url(#clip600)" d="M1200.33 381.241 L1205.22 381.241 L1205.22 387.121 L1200.33 387.121 L1200.33 381.241 Z" fill="#000000" fill-rule="nonzero" fill-opacity="1" /><path clip-path="url(#clip600)" d="M1225.4 355.639 Q1221.79 355.639 1219.96 359.204 Q1218.16 362.746 1218.16 369.875 Q1218.16 376.982 1219.96 380.547 Q1221.79 384.088 1225.4 384.088 Q1229.04 384.088 1230.84 380.547 Q1232.67 376.982 1232.67 369.875 Q1232.67 362.746 1230.84 359.204 Q1229.04 355.639 1225.4 355.639 M1225.4 351.936 Q1231.21 351.936 1234.27 356.542 Q1237.35 361.125 1237.35 369.875 Q1237.35 378.602 1234.27 383.209 Q1231.21 387.792 1225.4 387.792 Q1219.59 387.792 1216.51 383.209 Q1213.46 378.602 1213.46 369.875 Q1213.46 361.125 1216.51 356.542 Q1219.59 351.936 1225.4 351.936 Z" fill="#000000" fill-rule="nonzero" fill-opacity="1" /><path clip-path="url(#clip600)" d="M1171.98 184.683 L1179.61 184.683 L1179.61 158.317 L1171.3 159.984 L1171.3 155.725 L1179.57 154.058 L1184.24 154.058 L1184.24 184.683 L1191.88 184.683 L1191.88 188.618 L1171.98 188.618 L1171.98 184.683 Z" fill="#000000" fill-rule="nonzero" fill-opacity="1" /><path clip-path="url(#clip600)" d="M1201.33 182.738 L1206.21 182.738 L1206.21 188.618 L1201.33 188.618 L1201.33 182.738 Z" fill="#000000" fill-rule="nonzero" fill-opacity="1" /><path clip-path="url(#clip600)" d="M1216.44 154.058 L1234.8 154.058 L1234.8 157.993 L1220.73 157.993 L1220.73 166.465 Q1221.74 166.118 1222.76 165.956 Q1223.78 165.771 1224.8 165.771 Q1230.59 165.771 1233.97 168.942 Q1237.35 172.113 1237.35 177.53 Q1237.35 183.109 1233.87 186.21 Q1230.4 189.289 1224.08 189.289 Q1221.91 189.289 1219.64 188.919 Q1217.39 188.548 1214.98 187.808 L1214.98 183.109 Q1217.07 184.243 1219.29 184.798 Q1221.51 185.354 1223.99 185.354 Q1227.99 185.354 1230.33 183.248 Q1232.67 181.141 1232.67 177.53 Q1232.67 173.919 1230.33 171.812 Q1227.99 169.706 1223.99 169.706 Q1222.11 169.706 1220.24 170.123 Q1218.39 170.539 1216.44 171.419 L1216.44 154.058 Z" fill="#000000" fill-rule="nonzero" fill-opacity="1" /><polyline clip-path="url(#clip602)" style="stroke:#009af9; stroke-linecap:round; stroke-linejoin:round; stroke-width:4; stroke-opacity:1; fill:none" points="255.035,1445.72 268.294,1442.76 390.898,1414.07 464.577,1395.53 526.872,1378.96 594.542,1359.87 656.928,1341.12 723.812,1319.55 801.304,1292.24 870.17,1265.34 930.558,1239.09 963.478,1223.46 996.398,1206.68 1029.51,1188.4 1062.63,1168.38 1080.94,1156.4 1099.24,1143.63 1117.55,1129.93 1135.86,1115.12 1153.28,1099.74 1170.69,1082.79 1188.11,1063.8 1205.53,1042.02 1214.59,1029.18 1223.64,1014.94 1232.7,998.856 1241.75,980.161 1246.28,969.44 1250.81,957.447 1255.34,943.717 1259.86,927.443 1262.13,917.897 1264.39,906.963 1265.52,900.79 1266.66,893.989 1267.79,886.371 1268.92,877.633 1270.05,867.244 1271.18,854.096 1271.75,845.7 1272.32,834.989 1272.88,819.083 1273.45,735.313 1274.01,707.859 1274.58,694.469 1275.15,684.764 1275.71,676.932 1276.84,664.416 1277.98,654.382 1279.88,640.686 1281.79,629.454 1283.69,619.807 1285.6,611.284 1289.41,596.586 1293.22,584.064 1297.03,573.057 1300.84,563.175 1304.66,554.169 1308.47,545.868 1316.09,530.915 1323.71,517.65 1331.34,505.664 1338.96,494.687 1357.57,471.062 1376.19,450.706 1394.8,432.68 1413.41,416.414 1430.46,402.735 1447.51,390.013 1464.57,378.096 1481.62,366.869 1513.11,347.645 1544.61,330.039 1576.51,313.545 1608.42,298.171 1679.93,266.955 1744.73,241.695 1818.92,215.474 1887.62,193.241 1955.34,172.891 2021.1,154.384 2088.51,136.507 2162.36,118.018 2269.65,92.903 2291.66,87.9763 "/>
</svg>
