<?xml version="1.0" encoding="utf-8"?>
<svg xmlns="http://www.w3.org/2000/svg" xmlns:xlink="http://www.w3.org/1999/xlink" width="600" height="400" viewBox="0 0 2400 1600">
<defs>
  <clipPath id="clip580">
    <rect x="0" y="0" width="2400" height="1600"/>
  </clipPath>
</defs>
<path clip-path="url(#clip580)" d="M0 1600 L2400 1600 L2400 0 L0 0  Z" fill="#ffffff" fill-rule="evenodd" fill-opacity="1"/>
<defs>
  <clipPath id="clip581">
    <rect x="480" y="0" width="1681" height="1600"/>
  </clipPath>
</defs>
<path clip-path="url(#clip580)" d="M209.029 1486.45 L2352.76 1486.45 L2352.76 47.2441 L209.029 47.2441  Z" fill="#ffffff" fill-rule="evenodd" fill-opacity="1"/>
<defs>
  <clipPath id="clip582">
    <rect x="209" y="47" width="2145" height="1440"/>
  </clipPath>
</defs>
<polyline clip-path="url(#clip582)" style="stroke:#000000; stroke-linecap:round; stroke-linejoin:round; stroke-width:2; stroke-opacity:0.1; fill:none" points="471.938,1486.45 471.938,47.2441 "/>
<polyline clip-path="url(#clip582)" style="stroke:#000000; stroke-linecap:round; stroke-linejoin:round; stroke-width:2; stroke-opacity:0.1; fill:none" points="876.415,1486.45 876.415,47.2441 "/>
<polyline clip-path="url(#clip582)" style="stroke:#000000; stroke-linecap:round; stroke-linejoin:round; stroke-width:2; stroke-opacity:0.1; fill:none" points="1685.37,1486.45 1685.37,47.2441 "/>
<polyline clip-path="url(#clip582)" style="stroke:#000000; stroke-linecap:round; stroke-linejoin:round; stroke-width:2; stroke-opacity:0.1; fill:none" points="2089.85,1486.45 2089.85,47.2441 "/>
<polyline clip-path="url(#clip580)" style="stroke:#000000; stroke-linecap:round; stroke-linejoin:round; stroke-width:4; stroke-opacity:1; fill:none" points="209.029,766.846 2352.76,766.846 "/>
<polyline clip-path="url(#clip580)" style="stroke:#000000; stroke-linecap:round; stroke-linejoin:round; stroke-width:4; stroke-opacity:1; fill:none" points="471.938,785.744 471.938,747.948 "/>
<polyline clip-path="url(#clip580)" style="stroke:#000000; stroke-linecap:round; stroke-linejoin:round; stroke-width:4; stroke-opacity:1; fill:none" points="876.415,785.744 876.415,747.948 "/>
<polyline clip-path="url(#clip580)" style="stroke:#000000; stroke-linecap:round; stroke-linejoin:round; stroke-width:4; stroke-opacity:1; fill:none" points="1685.37,785.744 1685.37,747.948 "/>
<polyline clip-path="url(#clip580)" style="stroke:#000000; stroke-linecap:round; stroke-linejoin:round; stroke-width:4; stroke-opacity:1; fill:none" points="2089.85,785.744 2089.85,747.948 "/>
<path clip-path="url(#clip580)" d="M440.839 812.417 L470.515 812.417 L470.515 816.353 L440.839 816.353 L440.839 812.417 Z" fill="#000000" fill-rule="nonzero" fill-opacity="1" /><path clip-path="url(#clip580)" d="M493.455 798.76 L481.649 817.209 L493.455 817.209 L493.455 798.76 M492.228 794.686 L498.107 794.686 L498.107 817.209 L503.038 817.209 L503.038 821.098 L498.107 821.098 L498.107 829.246 L493.455 829.246 L493.455 821.098 L477.853 821.098 L477.853 816.584 L492.228 794.686 Z" fill="#000000" fill-rule="nonzero" fill-opacity="1" /><path clip-path="url(#clip580)" d="M846.358 812.417 L876.033 812.417 L876.033 816.353 L846.358 816.353 L846.358 812.417 Z" fill="#000000" fill-rule="nonzero" fill-opacity="1" /><path clip-path="url(#clip580)" d="M890.154 825.311 L906.473 825.311 L906.473 829.246 L884.529 829.246 L884.529 825.311 Q887.191 822.556 891.774 817.927 Q896.381 813.274 897.561 811.931 Q899.806 809.408 900.686 807.672 Q901.589 805.913 901.589 804.223 Q901.589 801.468 899.644 799.732 Q897.723 797.996 894.621 797.996 Q892.422 797.996 889.969 798.76 Q887.538 799.524 884.76 801.075 L884.76 796.353 Q887.584 795.218 890.038 794.64 Q892.492 794.061 894.529 794.061 Q899.899 794.061 903.093 796.746 Q906.288 799.431 906.288 803.922 Q906.288 806.052 905.478 807.973 Q904.691 809.871 902.584 812.464 Q902.005 813.135 898.904 816.353 Q895.802 819.547 890.154 825.311 Z" fill="#000000" fill-rule="nonzero" fill-opacity="1" /><path clip-path="url(#clip580)" d="M1680.02 825.311 L1696.34 825.311 L1696.34 829.246 L1674.4 829.246 L1674.4 825.311 Q1677.06 822.556 1681.64 817.927 Q1686.25 813.274 1687.43 811.931 Q1689.67 809.408 1690.55 807.672 Q1691.46 805.913 1691.46 804.223 Q1691.46 801.468 1689.51 799.732 Q1687.59 797.996 1684.49 797.996 Q1682.29 797.996 1679.84 798.76 Q1677.41 799.524 1674.63 801.075 L1674.63 796.353 Q1677.45 795.218 1679.91 794.64 Q1682.36 794.061 1684.4 794.061 Q1689.77 794.061 1692.96 796.746 Q1696.16 799.431 1696.16 803.922 Q1696.16 806.052 1695.35 807.973 Q1694.56 809.871 1692.45 812.464 Q1691.87 813.135 1688.77 816.353 Q1685.67 819.547 1680.02 825.311 Z" fill="#000000" fill-rule="nonzero" fill-opacity="1" /><path clip-path="url(#clip580)" d="M2092.86 798.76 L2081.05 817.209 L2092.86 817.209 L2092.86 798.76 M2091.63 794.686 L2097.51 794.686 L2097.51 817.209 L2102.44 817.209 L2102.44 821.098 L2097.51 821.098 L2097.51 829.246 L2092.86 829.246 L2092.86 821.098 L2077.25 821.098 L2077.25 816.584 L2091.63 794.686 Z" fill="#000000" fill-rule="nonzero" fill-opacity="1" /><polyline clip-path="url(#clip582)" style="stroke:#000000; stroke-linecap:round; stroke-linejoin:round; stroke-width:2; stroke-opacity:0.1; fill:none" points="209.029,1309.94 2352.76,1309.94 "/>
<polyline clip-path="url(#clip582)" style="stroke:#000000; stroke-linecap:round; stroke-linejoin:round; stroke-width:2; stroke-opacity:0.1; fill:none" points="209.029,1038.39 2352.76,1038.39 "/>
<polyline clip-path="url(#clip582)" style="stroke:#000000; stroke-linecap:round; stroke-linejoin:round; stroke-width:2; stroke-opacity:0.1; fill:none" points="209.029,495.298 2352.76,495.298 "/>
<polyline clip-path="url(#clip582)" style="stroke:#000000; stroke-linecap:round; stroke-linejoin:round; stroke-width:2; stroke-opacity:0.1; fill:none" points="209.029,223.75 2352.76,223.75 "/>
<polyline clip-path="url(#clip580)" style="stroke:#000000; stroke-linecap:round; stroke-linejoin:round; stroke-width:4; stroke-opacity:1; fill:none" points="1280.89,1486.45 1280.89,47.2441 "/>
<polyline clip-path="url(#clip580)" style="stroke:#000000; stroke-linecap:round; stroke-linejoin:round; stroke-width:4; stroke-opacity:1; fill:none" points="1261.99,1309.94 1299.79,1309.94 "/>
<polyline clip-path="url(#clip580)" style="stroke:#000000; stroke-linecap:round; stroke-linejoin:round; stroke-width:4; stroke-opacity:1; fill:none" points="1261.99,1038.39 1299.79,1038.39 "/>
<polyline clip-path="url(#clip580)" style="stroke:#000000; stroke-linecap:round; stroke-linejoin:round; stroke-width:4; stroke-opacity:1; fill:none" points="1261.99,495.298 1299.79,495.298 "/>
<polyline clip-path="url(#clip580)" style="stroke:#000000; stroke-linecap:round; stroke-linejoin:round; stroke-width:4; stroke-opacity:1; fill:none" points="1261.99,223.75 1299.79,223.75 "/>
<path clip-path="url(#clip580)" d="M1122.86 1310.39 L1152.53 1310.39 L1152.53 1314.33 L1122.86 1314.33 L1122.86 1310.39 Z" fill="#000000" fill-rule="nonzero" fill-opacity="1" /><path clip-path="url(#clip580)" d="M1163.43 1323.29 L1171.07 1323.29 L1171.07 1296.92 L1162.76 1298.59 L1162.76 1294.33 L1171.03 1292.66 L1175.7 1292.66 L1175.7 1323.29 L1183.34 1323.29 L1183.34 1327.22 L1163.43 1327.22 L1163.43 1323.29 Z" fill="#000000" fill-rule="nonzero" fill-opacity="1" /><path clip-path="url(#clip580)" d="M1202.79 1295.74 Q1199.17 1295.74 1197.35 1299.31 Q1195.54 1302.85 1195.54 1309.98 Q1195.54 1317.08 1197.35 1320.65 Q1199.17 1324.19 1202.79 1324.19 Q1206.42 1324.19 1208.23 1320.65 Q1210.05 1317.08 1210.05 1309.98 Q1210.05 1302.85 1208.23 1299.31 Q1206.42 1295.74 1202.79 1295.74 M1202.79 1292.04 Q1208.6 1292.04 1211.65 1296.64 Q1214.73 1301.23 1214.73 1309.98 Q1214.73 1318.7 1211.65 1323.31 Q1208.6 1327.89 1202.79 1327.89 Q1196.98 1327.89 1193.9 1323.31 Q1190.84 1318.7 1190.84 1309.98 Q1190.84 1301.23 1193.9 1296.64 Q1196.98 1292.04 1202.79 1292.04 Z" fill="#000000" fill-rule="nonzero" fill-opacity="1" /><path clip-path="url(#clip580)" d="M1232.95 1295.74 Q1229.34 1295.74 1227.51 1299.31 Q1225.7 1302.85 1225.7 1309.98 Q1225.7 1317.08 1227.51 1320.65 Q1229.34 1324.19 1232.95 1324.19 Q1236.58 1324.19 1238.39 1320.65 Q1240.22 1317.08 1240.22 1309.98 Q1240.22 1302.85 1238.39 1299.31 Q1236.58 1295.74 1232.95 1295.74 M1232.95 1292.04 Q1238.76 1292.04 1241.81 1296.64 Q1244.89 1301.23 1244.89 1309.98 Q1244.89 1318.7 1241.81 1323.31 Q1238.76 1327.89 1232.95 1327.89 Q1227.14 1327.89 1224.06 1323.31 Q1221 1318.7 1221 1309.98 Q1221 1301.23 1224.06 1296.64 Q1227.14 1292.04 1232.95 1292.04 Z" fill="#000000" fill-rule="nonzero" fill-opacity="1" /><path clip-path="url(#clip580)" d="M1153.02 1038.85 L1182.69 1038.85 L1182.69 1042.78 L1153.02 1042.78 L1153.02 1038.85 Z" fill="#000000" fill-rule="nonzero" fill-opacity="1" /><path clip-path="url(#clip580)" d="M1192.83 1021.11 L1211.19 1021.11 L1211.19 1025.05 L1197.11 1025.05 L1197.11 1033.52 Q1198.13 1033.17 1199.15 1033.01 Q1200.17 1032.83 1201.19 1032.83 Q1206.98 1032.83 1210.36 1036 Q1213.73 1039.17 1213.73 1044.59 Q1213.73 1050.16 1210.26 1053.27 Q1206.79 1056.35 1200.47 1056.35 Q1198.3 1056.35 1196.03 1055.97 Q1193.78 1055.6 1191.37 1054.86 L1191.37 1050.16 Q1193.46 1051.3 1195.68 1051.85 Q1197.9 1052.41 1200.38 1052.41 Q1204.38 1052.41 1206.72 1050.3 Q1209.06 1048.2 1209.06 1044.59 Q1209.06 1040.97 1206.72 1038.87 Q1204.38 1036.76 1200.38 1036.76 Q1198.5 1036.76 1196.63 1037.18 Q1194.78 1037.6 1192.83 1038.47 L1192.83 1021.11 Z" fill="#000000" fill-rule="nonzero" fill-opacity="1" /><path clip-path="url(#clip580)" d="M1232.95 1024.19 Q1229.34 1024.19 1227.51 1027.76 Q1225.7 1031.3 1225.7 1038.43 Q1225.7 1045.54 1227.51 1049.1 Q1229.34 1052.64 1232.95 1052.64 Q1236.58 1052.64 1238.39 1049.1 Q1240.22 1045.54 1240.22 1038.43 Q1240.22 1031.3 1238.39 1027.76 Q1236.58 1024.19 1232.95 1024.19 M1232.95 1020.49 Q1238.76 1020.49 1241.81 1025.1 Q1244.89 1029.68 1244.89 1038.43 Q1244.89 1047.16 1241.81 1051.76 Q1238.76 1056.35 1232.95 1056.35 Q1227.14 1056.35 1224.06 1051.76 Q1221 1047.16 1221 1038.43 Q1221 1029.68 1224.06 1025.1 Q1227.14 1020.49 1232.95 1020.49 Z" fill="#000000" fill-rule="nonzero" fill-opacity="1" /><path clip-path="url(#clip580)" d="M1192.83 478.018 L1211.19 478.018 L1211.19 481.953 L1197.11 481.953 L1197.11 490.425 Q1198.13 490.078 1199.15 489.916 Q1200.17 489.731 1201.19 489.731 Q1206.98 489.731 1210.36 492.902 Q1213.73 496.074 1213.73 501.49 Q1213.73 507.069 1210.26 510.171 Q1206.79 513.249 1200.47 513.249 Q1198.3 513.249 1196.03 512.879 Q1193.78 512.509 1191.37 511.768 L1191.37 507.069 Q1193.46 508.203 1195.68 508.759 Q1197.9 509.314 1200.38 509.314 Q1204.38 509.314 1206.72 507.208 Q1209.06 505.101 1209.06 501.49 Q1209.06 497.879 1206.72 495.773 Q1204.38 493.666 1200.38 493.666 Q1198.5 493.666 1196.63 494.083 Q1194.78 494.499 1192.83 495.379 L1192.83 478.018 Z" fill="#000000" fill-rule="nonzero" fill-opacity="1" /><path clip-path="url(#clip580)" d="M1232.95 481.097 Q1229.34 481.097 1227.51 484.662 Q1225.7 488.203 1225.7 495.333 Q1225.7 502.439 1227.51 506.004 Q1229.34 509.546 1232.95 509.546 Q1236.58 509.546 1238.39 506.004 Q1240.22 502.439 1240.22 495.333 Q1240.22 488.203 1238.39 484.662 Q1236.58 481.097 1232.95 481.097 M1232.95 477.393 Q1238.76 477.393 1241.81 482 Q1244.89 486.583 1244.89 495.333 Q1244.89 504.06 1241.81 508.666 Q1238.76 513.249 1232.95 513.249 Q1227.14 513.249 1224.06 508.666 Q1221 504.06 1221 495.333 Q1221 486.583 1224.06 482 Q1227.14 477.393 1232.95 477.393 Z" fill="#000000" fill-rule="nonzero" fill-opacity="1" /><path clip-path="url(#clip580)" d="M1163.43 237.095 L1171.07 237.095 L1171.07 210.729 L1162.76 212.396 L1162.76 208.137 L1171.03 206.47 L1175.7 206.47 L1175.7 237.095 L1183.34 237.095 L1183.34 241.03 L1163.43 241.03 L1163.43 237.095 Z" fill="#000000" fill-rule="nonzero" fill-opacity="1" /><path clip-path="url(#clip580)" d="M1202.79 209.549 Q1199.17 209.549 1197.35 213.114 Q1195.54 216.655 1195.54 223.785 Q1195.54 230.891 1197.35 234.456 Q1199.17 237.998 1202.79 237.998 Q1206.42 237.998 1208.23 234.456 Q1210.05 230.891 1210.05 223.785 Q1210.05 216.655 1208.23 213.114 Q1206.42 209.549 1202.79 209.549 M1202.79 205.845 Q1208.6 205.845 1211.65 210.452 Q1214.73 215.035 1214.73 223.785 Q1214.73 232.512 1211.65 237.118 Q1208.6 241.702 1202.79 241.702 Q1196.98 241.702 1193.9 237.118 Q1190.84 232.512 1190.84 223.785 Q1190.84 215.035 1193.9 210.452 Q1196.98 205.845 1202.79 205.845 Z" fill="#000000" fill-rule="nonzero" fill-opacity="1" /><path clip-path="url(#clip580)" d="M1232.95 209.549 Q1229.34 209.549 1227.51 213.114 Q1225.7 216.655 1225.7 223.785 Q1225.7 230.891 1227.51 234.456 Q1229.34 237.998 1232.95 237.998 Q1236.58 237.998 1238.39 234.456 Q1240.22 230.891 1240.22 223.785 Q1240.22 216.655 1238.39 213.114 Q1236.58 209.549 1232.95 209.549 M1232.95 205.845 Q1238.76 205.845 1241.81 210.452 Q1244.89 215.035 1244.89 223.785 Q1244.89 232.512 1241.81 237.118 Q1238.76 241.702 1232.95 241.702 Q1227.14 241.702 1224.06 237.118 Q1221 232.512 1221 223.785 Q1221 215.035 1224.06 210.452 Q1227.14 205.845 1232.95 205.845 Z" fill="#000000" fill-rule="nonzero" fill-opacity="1" /><polyline clip-path="url(#clip582)" style="stroke:#009af9; stroke-linecap:round; stroke-linejoin:round; stroke-width:4; stroke-opacity:1; fill:none" points="269.7,1445.72 272.992,1439.11 276.283,1432.54 279.575,1426.02 282.867,1419.54 313.303,1361.63 343.74,1307.25 374.177,1256.29 404.613,1208.63 422.904,1181.54 441.195,1155.58 459.487,1130.73 477.778,1106.95 508.707,1069.15 539.637,1034.26 573.236,999.523 606.834,967.93 637.809,941.463 668.784,917.427 701.992,894.225 735.2,873.537 773.675,852.523 812.15,834.468 846.342,820.723 880.534,808.98 910.518,800.205 940.501,792.741 973.191,785.974 1005.88,780.502 1038.77,776.166 1071.65,772.861 1144.36,768.517 1213.55,767.046 1285.49,766.846 1346.05,766.664 1419.98,765.079 1487.71,761.038 1518.98,757.984 1550.26,754.014 1581.94,748.932 1613.62,742.661 1649.13,734.062 1684.63,723.636 1716.81,712.46 1748.98,699.507 1785.82,682.325 1822.65,662.444 1856.76,641.458 1890.87,617.833 1924.5,591.805 1958.12,562.91 1990.77,531.971 2023.42,498.051 2056.89,460.041 2090.36,418.607 2108.69,394.404 2127.02,369.105 2145.36,342.685 2163.69,315.121 2190.33,272.99 2216.96,228.318 2243.59,181.029 2270.23,131.051 2275.69,120.458 2281.16,109.749 2286.62,98.9218 2292.08,87.9763 "/>
</svg>
